<svg width="185" height="45" viewBox="0 0 185 45" fill="none" xmlns="http://www.w3.org/2000/svg">
<g clip-path="url(#clip0_33_358)">
<path d="M35.2314 14.56V10.4871H52.2936V14.56L40.0968 29.756H52.8602V33.8152H34.7976V29.8135L47.0619 14.56H35.2314Z" fill="white"/>
<path d="M74.251 14.8849V10.4871H78.8508V14.8849H74.251ZM74.4491 33.8152V17.2858H78.6487V33.8152H74.4491Z" fill="white"/>
<path d="M97.88 22.5513V33.815H93.6823V24.2846C93.6823 21.9299 92.5597 20.7519 90.3146 20.7505C89.7874 20.7409 89.2653 20.8532 88.7886 21.0786C88.3121 21.304 87.894 21.6365 87.567 22.0501C86.8433 22.9178 86.482 24.0402 86.4834 25.4177V33.817H82.2837V17.2858H86.4834V19.9502C87.8385 17.8623 89.7045 16.8183 92.0816 16.8183C93.8368 16.8183 95.242 17.3406 96.2971 18.3853C97.3523 19.4299 97.88 20.8186 97.88 22.5513Z" fill="white"/>
<path d="M101.711 14.8849V10.4871H106.309V14.8849H101.711ZM101.909 33.8152V17.2858H106.109V33.8152H101.909Z" fill="white"/>
<path d="M114.34 10.4871V22.2858L119.372 17.2878H124.57L118.537 23.1852L125.37 33.817H120.538L115.606 26.0912L114.34 27.3235V33.8152H110.14V10.4871H114.34Z" fill="white"/>
<path d="M132.284 33.8152V10.4871H136.684V29.7481H146.39V33.8152H132.284Z" fill="white"/>
<path d="M162.085 18.3239C160.854 17.3255 159.059 16.8256 156.704 16.8243C154.59 16.8243 152.902 17.3301 151.637 18.3417C150.374 19.3534 149.74 20.536 149.738 21.8897C149.737 22.3721 149.839 22.8492 150.039 23.2883L153.803 22.0224C153.76 21.8946 153.739 21.7609 153.738 21.6262C153.738 21.0933 153.997 20.6496 154.53 20.293C155.063 19.9364 155.778 19.7601 156.709 19.7601C158.73 19.7601 159.741 20.5934 159.742 22.2601V22.8802L154.771 23.6508C153.041 23.9149 151.625 24.498 150.525 25.3999C149.425 26.302 148.875 27.5408 148.875 29.1162C148.875 30.672 149.391 31.9213 150.423 32.8642C151.456 33.8073 152.794 34.2793 154.439 34.2807C156.972 34.2807 158.816 33.2479 159.972 31.1824V33.8152H163.934V22.8168C163.935 20.8186 163.318 19.321 162.085 18.3239ZM159.736 26.0894C159.736 27.6226 159.336 28.8052 158.536 29.6372C157.735 30.4693 156.702 30.8867 155.435 30.8893C154.682 30.8893 154.082 30.7169 153.639 30.3703C153.416 30.1952 153.239 29.9692 153.124 29.7112C153.007 29.4532 152.954 29.171 152.971 28.8884C152.971 27.5771 153.895 26.7661 155.744 26.4559L159.743 25.7883L159.736 26.0894Z" fill="white"/>
<path d="M69.017 18.3239C67.7862 17.3255 65.9927 16.8256 63.6367 16.8243C61.5237 16.8243 59.8352 17.3301 58.5712 18.3417C57.3074 19.3534 56.6742 20.536 56.6716 21.8897C56.67 22.3721 56.7726 22.8492 56.9727 23.2883L60.7365 22.0224C60.6942 21.8946 60.6721 21.7609 60.6711 21.6262C60.6711 21.0933 60.9306 20.6496 61.4635 20.293C61.9964 19.9364 62.7116 19.7601 63.6426 19.7601C65.6632 19.7601 66.6742 20.5934 66.6755 22.2601V22.8802L61.7091 23.6468C59.9778 23.9109 58.5621 24.494 57.462 25.396C56.3619 26.298 55.8118 27.5368 55.8118 29.1123C55.8118 30.668 56.3282 31.9174 57.3609 32.8603C58.3937 33.8033 59.7322 34.2754 61.3764 34.2767C63.9094 34.2767 65.7537 33.244 66.9093 31.1785V33.8152H70.8712V22.8168C70.8699 20.8186 70.2518 19.321 69.017 18.3239ZM66.6696 26.0894C66.6696 27.6226 66.2694 28.8052 65.469 29.6372C64.6687 30.4693 63.6353 30.8867 62.3689 30.8893C61.6141 30.8893 61.0158 30.7169 60.5701 30.3703C60.3483 30.1949 60.1721 29.9686 60.0562 29.7107C59.9404 29.4528 59.8884 29.1707 59.9045 28.8884C59.9045 27.5771 60.829 26.7661 62.6779 26.4559L66.6775 25.7883L66.6696 26.0894Z" fill="white"/>
<path d="M167.252 33.8152V10.4871H171.452V19.3144C172.763 17.6477 174.573 16.8144 176.884 16.8144C179.171 16.8144 181.059 17.5975 182.549 19.1638C184.039 20.7301 184.783 22.8576 184.782 25.5465C184.782 28.2129 184.015 30.3346 182.481 31.9114C181.755 32.6784 180.874 33.285 179.899 33.6924C178.923 34.0997 177.873 34.2987 176.816 34.2767C174.462 34.2767 172.674 33.444 171.452 31.7787V33.8152H167.252ZM172.502 28.9993C173.379 29.8988 174.496 30.3483 175.851 30.3483C176.472 30.368 177.091 30.2583 177.667 30.0261C178.243 29.7938 178.765 29.4441 179.2 28.9993C180.075 28.1 180.515 26.9503 180.517 25.5504C180.518 24.1505 180.079 23.001 179.2 22.1016C178.321 21.1996 177.205 20.7492 175.851 20.7506C174.498 20.7519 173.38 21.2022 172.502 22.1016C171.625 23.001 171.185 24.1505 171.184 25.5504C171.183 26.9503 171.619 28.1 172.492 28.9993H172.502Z" fill="white"/>
<path d="M17.0437 25.9894L16.1314 28.1373H11.6993C11.4418 28.1386 11.1928 28.0454 10.9995 27.8752L11.8511 25.9894H17.0437Z" fill="url(#paint0_linear_33_358)"/>
<path d="M25.6455 29.5633L24.8411 34.6522H7.02856L8.00272 32.5033H23.0102L23.5244 29.2151C23.5458 29.0816 23.5378 28.9452 23.5011 28.8151C23.4644 28.6849 23.3997 28.5645 23.3118 28.4619C23.2237 28.3593 23.1144 28.2772 22.9914 28.221C22.8684 28.165 22.7346 28.1365 22.5995 28.1373H18.3769C18.1228 28.1373 17.8727 28.0736 17.6496 27.9518C17.4266 27.83 17.2376 27.654 17.1003 27.4403C16.9629 27.2264 16.8814 26.9815 16.8633 26.728C16.8453 26.4745 16.8911 26.2205 16.9968 25.9894H22.5796C23.0282 25.985 23.4723 26.0787 23.8809 26.2642C24.2894 26.4495 24.6524 26.722 24.9444 27.0626C25.2365 27.4032 25.4505 27.8034 25.5714 28.2355C25.6923 28.6675 25.7173 29.1207 25.6446 29.5633H25.6455Z" fill="#01C08D"/>
<path d="M18.7671 14.0932L13.4 25.9894L12.4305 28.1373H11.6991C11.5215 28.1376 11.3467 28.0934 11.1907 28.0085C11.0346 27.9236 10.9024 27.801 10.8061 27.6518C10.7098 27.5025 10.6525 27.3315 10.6395 27.1545C10.6265 26.9773 10.6581 26.7997 10.7316 26.6381L11.0244 25.9894L16.8168 13.1843C16.8654 13.0831 16.8871 12.9711 16.8796 12.8591C16.8722 12.7471 16.8359 12.6389 16.7742 12.5451C16.7138 12.4506 16.6301 12.3732 16.5313 12.3202C16.4324 12.2672 16.3215 12.2404 16.2093 12.2423H4.95142L5.80304 10.091H16.188C16.6633 10.0868 17.1318 10.2029 17.5501 10.4286C17.9684 10.6542 18.3227 10.9821 18.5802 11.3816C18.8376 11.7811 18.9897 12.2392 19.0224 12.7133C19.0551 13.1875 18.9673 13.6621 18.7671 14.0932Z" fill="#01C08D"/>
<path d="M4.20968 16.6064C4.07453 16.6073 3.94081 16.5787 3.81782 16.5227C3.69483 16.4666 3.58554 16.3844 3.49755 16.2818C3.40956 16.1793 3.34498 16.0587 3.30831 15.9286C3.27163 15.7986 3.26375 15.6621 3.2852 15.5286L3.79948 12.2409H8.46069L9.43437 10.0915H1.96613L1.16182 15.1804C1.08903 15.6232 1.11403 16.0766 1.23508 16.5088C1.35614 16.9409 1.5703 17.3413 1.86254 17.6819C2.15479 18.0225 2.51803 18.295 2.92676 18.4802C3.33551 18.6655 3.77985 18.7591 4.22861 18.7544H8.45312L3.0633 30.6515C2.86326 31.0825 2.77556 31.5572 2.80838 32.0312C2.84119 32.5054 2.99345 32.9633 3.25099 33.3627C3.50852 33.762 3.86293 34.0897 4.28122 34.3153C4.69952 34.5407 5.16807 34.6566 5.64324 34.6522H16.7958L17.6473 32.5018H5.62147C5.50958 32.503 5.39922 32.4758 5.30071 32.4226C5.20219 32.3696 5.11874 32.2925 5.05813 32.1984C4.99751 32.1042 4.96171 31.9964 4.95407 31.8847C4.94644 31.7731 4.96722 31.6613 5.01446 31.5599L10.8339 18.7511C10.9388 18.5199 10.9841 18.2662 10.9656 18.013C10.9471 17.7599 10.8654 17.5154 10.7279 17.302C10.5904 17.0886 10.4016 16.9131 10.1788 16.7916C9.95595 16.6701 9.70618 16.6064 9.45235 16.6064H4.20968Z" fill="#01C08D"/>
<path d="M19.8417 19.6983C19.8891 19.5969 19.9099 19.4851 19.9024 19.3734C19.8947 19.2618 19.859 19.1538 19.7985 19.0597C19.738 18.9656 19.6545 18.8884 19.556 18.8352C19.4574 18.7821 19.3472 18.7548 19.2351 18.7558H16.8223L17.7633 16.6055H19.2138C19.6891 16.6012 20.1576 16.7172 20.5759 16.9427C20.9942 17.1683 21.3485 17.496 21.6062 17.8954C21.8637 18.2948 22.0159 18.7528 22.0487 19.2269C22.0816 19.701 21.9939 20.1756 21.7939 20.6067L19.1917 21.1309L19.8417 19.6983Z" fill="url(#paint1_linear_33_358)"/>
<path d="M21.7928 20.6066L18.3963 28.1378H18.3693C18.1155 28.1377 17.8659 28.0741 17.6431 27.9525C17.4203 27.831 17.2316 27.6555 17.094 27.4423C16.9565 27.229 16.8747 26.9847 16.8562 26.7315C16.8375 26.4784 16.8826 26.2248 16.9874 25.9936L19.1921 21.1309L19.8417 19.6982L21.9679 18.7222C22.1294 19.3517 22.0675 20.0177 21.7928 20.6066Z" fill="#01C08D"/>
</g>
<defs>
<linearGradient id="paint0_linear_33_358" x1="10.999" y1="25.7429" x2="16.7243" y2="28.0564" gradientUnits="userSpaceOnUse">
<stop offset="0.51" stop-color="#01C08D"/>
<stop offset="0.55" stop-color="#01C08D" stop-opacity="0.91"/>
<stop offset="0.64" stop-color="#01C08D" stop-opacity="0.68"/>
<stop offset="0.77" stop-color="#01C08D" stop-opacity="0.31"/>
<stop offset="0.86" stop-color="#01C08D" stop-opacity="0"/>
</linearGradient>
<linearGradient id="paint1_linear_33_358" x1="16.4584" y1="17.8361" x2="24.1292" y2="20.4775" gradientUnits="userSpaceOnUse">
<stop offset="0.12" stop-color="#01C08D" stop-opacity="0"/>
<stop offset="0.19" stop-color="#01C08D" stop-opacity="0.22"/>
<stop offset="0.29" stop-color="#01C08D" stop-opacity="0.55"/>
<stop offset="0.37" stop-color="#01C08D" stop-opacity="0.8"/>
<stop offset="0.44" stop-color="#01C08D" stop-opacity="0.94"/>
<stop offset="0.48" stop-color="#01C08D"/>
</linearGradient>
<clipPath id="clip0_33_358">
<rect width="183.697" height="24.6851" fill="white" transform="translate(1.12109 10.0909)"/>
</clipPath>
</defs>
</svg>
